<?xml version="1.0" encoding="UTF-8"?>
<svg id="Layer_1" xmlns="http://www.w3.org/2000/svg" version="1.1" viewBox="0 0 1920 1080">
  <!-- Generator: Adobe Illustrator 29.1.0, SVG Export Plug-In . SVG Version: 2.1.0 Build 142)  -->
  <defs>
    <style>
      .st0 {
        fill: #fff;
      }
    </style>
  </defs>
  <path class="st0" d="M670.2,478.9h-63.2c-2.6,0-4.7,2.1-4.7,4.7h0c0,2.6,2.1,4.7,4.7,4.7h61.4c12.6,0,22.8,10.2,22.8,22.8v45c0,10.2-12.3,15.2-19.5,8.1l-79.7-79.7c-3.6-3.6-8.4-5.6-13.4-5.6h-.2c-10.5,0-19,8.5-19,19v72.7c0,16.8,13.6,30.4,30.4,30.4h63.3c2.6,0,4.7-2.1,4.7-4.7h0c0-2.6-2.1-4.7-4.7-4.7h-61.5c-12.6,0-22.8-10.2-22.8-22.8v-44.1c0-10.2,12.3-15.2,19.5-8.1l78.8,78.8c3.6,3.6,8.4,5.6,13.4,5.6h1.1c10.5,0,19-8.5,19-19v-72.7c0-16.8-13.6-30.4-30.4-30.4Z"/>
  <path class="st0" d="M809.3,561.5c0,10.6-6,15-12.5,15s-9.9-1.7-13-5.5l-36.6-44.4c-.5-.6-1-.9-1.6-.9-.9,0-1.7.7-1.7,2v47.4h-17.6v-55.1c0-11.9,6.5-16.3,15.5-16.3s10.3,1.8,14.4,6.9l32.5,40.9c.5.7,1.1.8,1.7.8s1.4-.6,1.4-1.9v-45.2h17.5v56.4Z"/>
  <path class="st0" d="M853,575c-11.9,0-20.7-4.3-26.8-11.4-5.3-6.1-8.6-14.4-8.6-23.6s4.1-19.3,10.7-25.8c5.9-5.7,13.9-9.2,24.7-9.2h14c10.7,0,18.7,3.5,24.7,9.2,6.6,6.4,10.7,15.6,10.7,25.8s-3.3,17.5-8.6,23.6c-6.1,7-14.9,11.4-26.8,11.4h-14ZM853,523.6c-6,0-9.8,1.8-12.6,4.6-3.1,3-4.9,7.3-4.9,12s1.6,8.2,4.1,11.1c2.9,3.3,7.1,5.4,13.4,5.4h14c6.3,0,10.5-2.1,13.4-5.4,2.6-2.9,4.1-6.8,4.1-11.1s-1.9-9-4.9-12c-2.9-2.8-6.6-4.6-12.6-4.6h-14Z"/>
  <path class="st0" d="M900.6,508.2c-.5-1.1-.8-2.1-1.1-3.1h21.1c.2.9.4,1.7.7,2.5l19.9,48.3c.6,1.6,1.7,2.2,2.9,2.2s2.1-.5,2.8-2.2l19.7-48.3c.3-.7.6-1.7.8-2.5h20.8c-.3,1-.6,2-1.1,3.1l-23.9,55.4c-3.7,8.7-9.8,12.8-19.2,12.8s-15.6-4.1-19.3-12.8l-24.1-55.4Z"/>
  <path class="st0" d="M1060.7,571.9c.5,1.1.8,2.1,1.1,3.1h-21.1c-.2-.9-.4-1.7-.7-2.5l-19.9-48.3c-.6-1.6-1.7-2.2-2.9-2.2s-2.1.5-2.8,2.2l-19.7,48.3c-.3.7-.6,1.7-.8,2.5h-20.8c.3-1,.6-2,1.1-3.1l23.9-55.4c3.7-8.7,9.8-12.8,19.2-12.8s15.6,4.1,19.3,12.8l24.1,55.4Z"/>
  <path class="st0" d="M1169.2,505.1v69.9h-19.6v-27h-43.4v27h-19.6v-69.9h19.6v25.3h43.4v-25.3h19.6Z"/>
  <path class="st0" d="M1203.1,575c-16.8,0-23.4-6.7-23.4-22.3v-47.6h17.9v45.5c0,4.3,2,6.5,6.4,6.5h27.7c4.4,0,6.6-2.1,6.6-6.5v-45.5h17.9v47.6c0,15.6-6.6,22.3-23.4,22.3h-29.9Z"/>
  <path class="st0" d="M1318.9,505.1c7,0,12.5,2.3,16.4,6.6,3.1,3.4,5,8.1,5,14s-2.4,11.2-6.7,14.2c4.9,2.7,7.4,8.8,7.4,15.2s-1.8,9.5-4.6,13c-3.5,4.2-8.6,6.9-16.5,6.9h-48.6c-3,0-4.4-1.4-4.4-4.4v-61.1c0-2.9,1.5-4.3,4.4-4.3h47.6ZM1315.7,533.7c2.5,0,3.9-.8,4.9-2.2.7-.9,1.2-2.2,1.2-3.4s-.5-2.5-1.2-3.4c-1-1.2-2.5-2.1-4.9-2.1h-29.7c-1,0-1.4.5-1.4,1.6v9.5h31.1ZM1284.7,556.5c0,1,.4,1.6,1.4,1.6h29.6c2.7,0,4.2-.8,5.2-2.1.9-1.1,1.4-2.5,1.4-3.9s-.6-2.8-1.5-3.8c-1.1-1.2-2.5-2-5.1-2h-31v10.2Z"/>
</svg>