<?xml version="1.0" encoding="UTF-8"?>
<svg id="Layer_1" xmlns="http://www.w3.org/2000/svg" version="1.1" viewBox="0 0 1920 1080">
  <!-- Generator: Adobe Illustrator 29.1.0, SVG Export Plug-In . SVG Version: 2.1.0 Build 142)  -->
  <defs>
    <style>
      .st0 {
        fill: blue;
      }
    </style>
  </defs>
  <line class="st0" x1="1264.5" y1="513.5" x2="1260.8" y2="523.6"/>
  <g>
    <path class="st0" d="M1212.7,599.9c1-1.4,1.7-3.2,1.7-5s-.7-3.6-1.7-5c-1.4-1.8-3.6-3-7.2-3h-43.1c-1.4,0-2,.8-2,2.3v13.8h45.1c3.6,0,5.7-1.2,7.2-3.2Z"/>
    <path class="st0" d="M1205.4,621.2h-45v14.9c0,1.5.6,2.3,2,2.3h43c3.9,0,6.2-1.2,7.6-3,1.3-1.7,2-3.6,2-5.7s-.9-4.1-2.2-5.6c-1.6-1.8-3.6-2.9-7.4-2.9Z"/>
    <path class="st0" d="M1331.7,340.2h-742.7c-50.5,0-91.5,41-91.5,91.5v216.6c0,50.6,41,91.5,91.5,91.5h742.7c50.5,0,91.5-41,91.5-91.5v-216.6c0-50.6-41-91.5-91.5-91.5ZM1154.6,419.4c.3,1.4.6,2.4,1,3.6l28.9,70.2c.9,2.3,2.4,3.2,4.2,3.2s3-.8,4-3.2l28.7-70.2c.4-1.1.9-2.4,1.1-3.6h30.2c-.4,1.5-.9,2.9-1.6,4.5l-34.7,80.6c-5.4,12.6-14.2,18.6-27.9,18.6s-22.6-6-28.1-18.6l-35-80.6c-.7-1.7-1.1-3-1.6-4.5h30.7ZM841.1,623.5c0,20.8-16.9,37.7-37.7,37.7h-2.2c-10,0-19.6-4-26.6-11l-156.2-156.2c-14.2-14.2-38.6-4.2-38.6,16v87.5c0,25,20.2,45.2,45.2,45.2h121.9c5.1,0,9.3,4.2,9.3,9.3h0c0,5.1-4.2,9.3-9.3,9.3h-125.5c-33.3,0-60.3-27-60.3-60.3v-144.2c0-20.8,16.9-37.7,37.7-37.7h.4c10,0,19.6,4,26.6,11l158,158c14.2,14.2,38.6,4.2,38.6-16v-89.2c0-25-20.2-45.2-45.2-45.2h-121.7c-5.1,0-9.3-4.2-9.3-9.3s4.2-9.3,9.3-9.3h125.3c33.3,0,60.3,27,60.3,60.3v144.2ZM992.5,663h-28.5v-39.2h-63v39.2h-28.4v-101.6h28.4v36.8h63v-36.8h28.5v101.6ZM992.7,501.3c0,15.3-8.7,21.8-18.2,21.8s-14.3-2.4-18.9-8l-53.2-64.5c-.7-.9-1.4-1.4-2.3-1.4-1.3,0-2.4,1.1-2.4,2.9v68.8h-25.5v-80.1c0-17.3,9.5-23.7,22.5-23.7s14.9,2.6,20.9,10.1l47.3,59.4c.7,1.1,1.6,1.2,2.4,1.2s2-.9,2-2.7v-65.7h25.4v81.9ZM1119.2,630.5c0,22.7-9.6,32.5-34,32.5h-43.4c-24.4,0-34-9.8-34-32.5v-69.1h26.1v66.1c0,6.3,2.9,9.5,9.3,9.5h40.3c6.4,0,9.6-3,9.6-9.5v-66.1h26.1v69.1ZM1115.6,504.5c-8.9,10.2-21.6,16.5-39,16.5h-20.3c-17.3,0-30.1-6.3-39-16.5-7.7-8.9-12.5-20.9-12.5-34.3s6-28.1,15.6-37.4c8.6-8.3,20.2-13.4,35.8-13.4h20.3c15.6,0,27.2,5.1,35.8,13.4,9.6,9.3,15.6,22.7,15.6,37.4s-4.7,25.4-12.5,34.3ZM1235.4,652.9c-5,6.2-12.5,10.1-23.9,10.1h-70.6c-4.3,0-6.4-2.1-6.4-6.5v-88.8c0-4.2,2.1-6.3,6.4-6.3h69.2c10.2,0,18.2,3.3,23.8,9.6,4.4,5,7.3,11.7,7.3,20.3s-3.4,16.2-9.7,20.6c7.2,3.9,10.7,12.8,10.7,22.1s-2.6,13.8-6.7,18.9ZM1328.9,521c-.3-1.4-.6-2.4-1-3.6l-28.9-70.2c-.9-2.3-2.4-3.2-4.2-3.2s-3,.8-4,3.2l-28.7,70.2c-.4,1.1-.9,2.4-1.1,3.6h-30.2c.4-1.5.9-2.9,1.6-4.5l34.7-80.6c5.4-12.6,14.2-18.6,27.9-18.6s22.6,6,28.1,18.6l35,80.6c.7,1.7,1.1,3,1.6,4.5h-30.7Z"/>
    <path class="st0" d="M1076.6,446.3h-20.3c-8.7,0-14.2,2.6-18.3,6.6-4.4,4.4-7.2,10.7-7.2,17.4s2.3,11.9,6,16.1c4.2,4.8,10.3,7.8,19.5,7.8h20.3c9.2,0,15.3-3,19.5-7.8,3.7-4.2,6-9.9,6-16.1s-2.7-13.1-7.2-17.4c-4.2-4.1-9.6-6.6-18.3-6.6Z"/>
  </g>
</svg>